HIERARCHY
ROOT Root
{
  OFFSET 0.0 0.0 0.0
  CHANNELS 6 Xposition Yposition Zposition Zrotation Yrotation Xrotation
  JOINT Hips
  {
    OFFSET 0.0 100.0 0.0
    CHANNELS 6 Xposition Yposition Zposition Zrotation Yrotation Xrotation
    JOINT Spine1
    {
      OFFSET 5.003913 -0.037094 -0.013727
      CHANNELS 3 Zrotation Yrotation Xrotation
      JOINT Spine2
      {
        OFFSET 7.125363 -1e-06 0.0
        CHANNELS 3 Zrotation Yrotation Xrotation
        JOINT Chest
        {
          OFFSET 7.594027 1e-06 0.0
          CHANNELS 3 Zrotation Yrotation Xrotation
          JOINT Neck1
          {
            OFFSET 26.313086 -0.460272 -0.181672
            CHANNELS 3 Zrotation Yrotation Xrotation
            JOINT Neck2
            {
              OFFSET 8.045911 0.0 0.0
              CHANNELS 3 Zrotation Yrotation Xrotation
              JOINT Head
              {
                OFFSET 6.432774 0.0 0.0
                CHANNELS 3 Zrotation Yrotation Xrotation
                JOINT HeadEnd
                {
                  OFFSET 16.169773 0.06451 0.00362
                  CHANNELS 3 Zrotation Yrotation Xrotation
                }
                JOINT Jaw
                {
                  OFFSET 0.108741 3.12938 0.002639
                  CHANNELS 3 Zrotation Yrotation Xrotation
                }
                JOINT LeftEye
                {
                  OFFSET 4.45173 8.166359 3.206392
                  CHANNELS 3 Zrotation Yrotation Xrotation
                }
                JOINT RightEye
                {
                  OFFSET 4.436895 8.135758 -3.222429
                  CHANNELS 3 Zrotation Yrotation Xrotation
                }
              }
            }
          }
          JOINT LeftShoulder
          {
            OFFSET 23.218927 5.195579 1.621656
            CHANNELS 3 Zrotation Yrotation Xrotation
            JOINT LeftArm
            {
              OFFSET 15.902118 2e-06 -2e-06
              CHANNELS 3 Zrotation Yrotation Xrotation
              JOINT LeftForeArm
              {
                OFFSET 28.739307 0.0 -1e-06
                CHANNELS 3 Zrotation Yrotation Xrotation
                JOINT LeftHand
                {
                  OFFSET 27.093981 -4e-06 0.0
                  CHANNELS 3 Zrotation Yrotation Xrotation
                  JOINT LeftHandThumb1
                  {
                    OFFSET 2.276781 3.380274 0.83384
                    CHANNELS 3 Zrotation Yrotation Xrotation
                    JOINT LeftHandThumb2
                    {
                      OFFSET 4.705309 -1e-06 -1e-06
                      CHANNELS 3 Zrotation Yrotation Xrotation
                      JOINT LeftHandThumb3
                      {
                        OFFSET 2.798515 0.0 3e-06
                        CHANNELS 3 Zrotation Yrotation Xrotation
                        JOINT LeftHandThumbEnd
                        {
                          OFFSET 3.180793 4e-06 -4e-06
                          CHANNELS 3 Zrotation Yrotation Xrotation
                        }
                      }
                    }
                  }
                  JOINT LeftHandIndex1
                  {
                    OFFSET 3.247786 2.352677 0.137192
                    CHANNELS 3 Zrotation Yrotation Xrotation
                    JOINT LeftHandIndex2
                    {
                      OFFSET 6.367095 1e-06 0.0
                      CHANNELS 3 Zrotation Yrotation Xrotation
                      JOINT LeftHandIndex3
                      {
                        OFFSET 3.662364 0.0 0.0
                        CHANNELS 3 Zrotation Yrotation Xrotation
                        JOINT LeftHandIndex4
                        {
                          OFFSET 2.329242 4e-06 -4e-06
                          CHANNELS 3 Zrotation Yrotation Xrotation
                          JOINT LeftHandIndexEnd
                          {
                            OFFSET 2.767823 1e-06 0.0
                            CHANNELS 3 Zrotation Yrotation Xrotation
                          }
                        }
                      }
                    }
                  }
                  JOINT LeftHandMiddle1
                  {
                    OFFSET 3.163612 0.945023 -0.406112
                    CHANNELS 3 Zrotation Yrotation Xrotation
                    JOINT LeftHandMiddle2
                    {
                      OFFSET 6.276789 3e-06 0.0
                      CHANNELS 3 Zrotation Yrotation Xrotation
                      JOINT LeftHandMiddle3
                      {
                        OFFSET 4.35652 -1e-06 4e-06
                        CHANNELS 3 Zrotation Yrotation Xrotation
                        JOINT LeftHandMiddle4
                        {
                          OFFSET 2.996877 0.0 8e-06
                          CHANNELS 3 Zrotation Yrotation Xrotation
                          JOINT LeftHandMiddleEnd
                          {
                            OFFSET 2.323256 3e-06 -4e-06
                            CHANNELS 3 Zrotation Yrotation Xrotation
                          }
                        }
                      }
                    }
                  }
                  JOINT LeftHandRing1
                  {
                    OFFSET 2.882606 -0.309162 0.107445
                    CHANNELS 3 Zrotation Yrotation Xrotation
                    JOINT LeftHandRing2
                    {
                      OFFSET 6.033198 0.0 4e-06
                      CHANNELS 3 Zrotation Yrotation Xrotation
                      JOINT LeftHandRing3
                      {
                        OFFSET 4.350578 3e-06 0.0
                        CHANNELS 3 Zrotation Yrotation Xrotation
                        JOINT LeftHandRing4
                        {
                          OFFSET 2.651321 2e-06 -7e-06
                          CHANNELS 3 Zrotation Yrotation Xrotation
                          JOINT LeftHandRingEnd
                          {
                            OFFSET 1.937663 1e-06 -4e-06
                            CHANNELS 3 Zrotation Yrotation Xrotation
                          }
                        }
                      }
                    }
                  }
                  JOINT LeftHandPinky1
                  {
                    OFFSET 2.865315 -1.525436 0.575687
                    CHANNELS 3 Zrotation Yrotation Xrotation
                    JOINT LeftHandPinky2
                    {
                      OFFSET 5.54936 1e-06 -8e-06
                      CHANNELS 3 Zrotation Yrotation Xrotation
                      JOINT LeftHandPinky3
                      {
                        OFFSET 3.070974 0.0 -4e-06
                        CHANNELS 3 Zrotation Yrotation Xrotation
                        JOINT LeftHandPinky4
                        {
                          OFFSET 1.549672 1e-06 0.0
                          CHANNELS 3 Zrotation Yrotation Xrotation
                          JOINT LeftHandPinkyEnd
                          {
                            OFFSET 1.952123 0.0 0.0
                            CHANNELS 3 Zrotation Yrotation Xrotation
                          }
                        }
                      }
                    }
                  }
                }
              }
            }
          }
          JOINT RightShoulder
          {
            OFFSET 23.161716 5.296122 -1.380114
            CHANNELS 3 Zrotation Yrotation Xrotation
            JOINT RightArm
            {
              OFFSET -16.027195 -2e-06 1.1e-05
              CHANNELS 3 Zrotation Yrotation Xrotation
              JOINT RightForeArm
              {
                OFFSET -28.736639 4e-06 2e-06
                CHANNELS 3 Zrotation Yrotation Xrotation
                JOINT RightHand
                {
                  OFFSET -27.133619 6e-06 0.0
                  CHANNELS 3 Zrotation Yrotation Xrotation
                  JOINT RightHandThumb1
                  {
                    OFFSET -2.274328 -3.351035 -0.83067
                    CHANNELS 3 Zrotation Yrotation Xrotation
                    JOINT RightHandThumb2
                    {
                      OFFSET -4.703594 -3e-06 2e-06
                      CHANNELS 3 Zrotation Yrotation Xrotation
                      JOINT RightHandThumb3
                      {
                        OFFSET -2.794935 -4e-06 -3e-06
                        CHANNELS 3 Zrotation Yrotation Xrotation
                        JOINT RightHandThumbEnd
                        {
                          OFFSET -3.183852 4e-06 1e-06
                          CHANNELS 3 Zrotation Yrotation Xrotation
                        }
                      }
                    }
                  }
                  JOINT RightHandIndex1
                  {
                    OFFSET -3.253496 -2.33755 -0.127667
                    CHANNELS 3 Zrotation Yrotation Xrotation
                    JOINT RightHandIndex2
                    {
                      OFFSET -6.344434 0.0 0.0
                      CHANNELS 3 Zrotation Yrotation Xrotation
                      JOINT RightHandIndex3
                      {
                        OFFSET -3.654871 0.0 -8e-06
                        CHANNELS 3 Zrotation Yrotation Xrotation
                        JOINT RightHandIndex4
                        {
                          OFFSET -2.327586 -1e-06 0.0
                          CHANNELS 3 Zrotation Yrotation Xrotation
                          JOINT RightHandIndexEnd
                          {
                            OFFSET -2.770001 3e-06 8e-06
                            CHANNELS 3 Zrotation Yrotation Xrotation
                          }
                        }
                      }
                    }
                  }
                  JOINT RightHandMiddle1
                  {
                    OFFSET -3.168223 -0.944764 0.411762
                    CHANNELS 3 Zrotation Yrotation Xrotation
                    JOINT RightHandMiddle2
                    {
                      OFFSET -6.266691 -1e-06 -4e-06
                      CHANNELS 3 Zrotation Yrotation Xrotation
                      JOINT RightHandMiddle3
                      {
                        OFFSET -4.348901 0.0 0.0
                        CHANNELS 3 Zrotation Yrotation Xrotation
                        JOINT RightHandMiddle4
                        {
                          OFFSET -3.00024 2e-06 -4e-06
                          CHANNELS 3 Zrotation Yrotation Xrotation
                          JOINT RightHandMiddleEnd
                          {
                            OFFSET -2.321477 -4e-06 -4e-06
                            CHANNELS 3 Zrotation Yrotation Xrotation
                          }
                        }
                      }
                    }
                  }
                  JOINT RightHandRing1
                  {
                    OFFSET -2.885654 0.293261 -0.119232
                    CHANNELS 3 Zrotation Yrotation Xrotation
                    JOINT RightHandRing2
                    {
                      OFFSET -6.032835 -1e-06 -4e-06
                      CHANNELS 3 Zrotation Yrotation Xrotation
                      JOINT RightHandRing3
                      {
                        OFFSET -4.33881 0.0 -4e-06
                        CHANNELS 3 Zrotation Yrotation Xrotation
                        JOINT RightHandRing4
                        {
                          OFFSET -2.654903 -4e-06 -4e-06
                          CHANNELS 3 Zrotation Yrotation Xrotation
                          JOINT RightHandRingEnd
                          {
                            OFFSET -1.935122 0.0 4e-06
                            CHANNELS 3 Zrotation Yrotation Xrotation
                          }
                        }
                      }
                    }
                  }
                  JOINT RightHandPinky1
                  {
                    OFFSET -2.866241 1.503904 -0.60527
                    CHANNELS 3 Zrotation Yrotation Xrotation
                    JOINT RightHandPinky2
                    {
                      OFFSET -5.553177 -2e-06 0.0
                      CHANNELS 3 Zrotation Yrotation Xrotation
                      JOINT RightHandPinky3
                      {
                        OFFSET -3.062664 -1e-06 -4e-06
                        CHANNELS 3 Zrotation Yrotation Xrotation
                        JOINT RightHandPinky4
                        {
                          OFFSET -1.546529 2e-06 4e-06
                          CHANNELS 3 Zrotation Yrotation Xrotation
                          JOINT RightHandPinkyEnd
                          {
                            OFFSET -1.952341 0.0 -4e-06
                            CHANNELS 3 Zrotation Yrotation Xrotation
                          }
                        }
                      }
                    }
                  }
                }
              }
            }
          }
        }
      }
    }
    JOINT LeftLeg
    {
      OFFSET -8.443107 2.567604 10.043214
      CHANNELS 3 Zrotation Yrotation Xrotation
      JOINT LeftShin
      {
        OFFSET 43.229198 1e-06 -1e-06
        CHANNELS 3 Zrotation Yrotation Xrotation
        JOINT LeftFoot
        {
          OFFSET 42.298611 1e-06 1e-06
          CHANNELS 3 Zrotation Yrotation Xrotation
          JOINT LeftToeBase
          {
            OFFSET 14.165858 1e-06 0.0
            CHANNELS 3 Zrotation Yrotation Xrotation
            JOINT LeftToeEnd
            {
              OFFSET 6.7141 -0.234461 0.0
              CHANNELS 3 Zrotation Yrotation Xrotation
            }
          }
        }
      }
    }
    JOINT RightLeg
    {
      OFFSET -8.303923 2.592729 -10.047278
      CHANNELS 3 Zrotation Yrotation Xrotation
      JOINT RightShin
      {
        OFFSET -43.369682 0.0 1e-06
        CHANNELS 3 Zrotation Yrotation Xrotation
        JOINT RightFoot
        {
          OFFSET -42.260784 4e-06 2e-06
          CHANNELS 3 Zrotation Yrotation Xrotation
          JOINT RightToeBase
          {
            OFFSET -14.222245 -2e-06 -1e-06
            CHANNELS 3 Zrotation Yrotation Xrotation
            JOINT RightToeEnd
            {
              OFFSET -6.660062 0.232574 -2e-06
              CHANNELS 3 Zrotation Yrotation Xrotation
            }
          }
        }
      }
    }
  }
}
MOTION
Frames: 4
Frame Time: 0.03333333333333333
0.0 0.0 0.0 0.0 -0.0 0.0 -0.479699 100.286552 -0.391185 89.742455 4.040134 90.053032 -2.507716 0.025105 0.031192 -11.701488 -0.42803 0.037384 18.519697 0.411202 -1.862052 30.286562 -1.08226 2.297314 -2.688228 -0.426642 0.58034 -36.90152 1.277245 -0.093504 -0.001277 -9e-05 -0.000359 0.054751 0.005292 0.065085 0.110549 -0.043849 0.06226 0.102793 0.051216 0.075601 -139.741974 -64.467995 158.220978 30.933056 -45.900307 12.0066 26.403839 0.133472 0.092139 1.691523 -3.825722 4.652163 17.615574 -26.366091 52.561535 -19.467274 -14.399398 29.465113 0.000762 -8.7743 0.008173 16.198311 -18.175108 6.051475 -0.60845 -1.789167 -3.879778 -4.8159 -11.053916 -2.929806 -0.002379 -20.982639 -0.003465 -5.01693 -25.019979 -4.031009 0.001381 -0.001127 0.001451 -10.62338 -5.68924 -3.556932 10.548195 -17.920963 -3.110587 -0.005806 -13.837623 0.006435 -0.511559 -31.179274 -4.036396 -11.733383 -59.351101 7.486233 -13.975118 -7.150795 -2.858889 13.75756 -8.396509 -3.220777 0.326124 -34.220833 0.771879 -0.984823 -17.73477 2.620418 0.00446 0.000423 0.000386 -17.349268 -20.097466 -4.188424 21.738922 -1.635737 3.873737 -0.003749 -6.334397 -0.008958 -1.701222 -22.57383 -6.175372 0.005659 0.00142 -0.011318 28.501123 -66.629173 169.905579 29.279768 -47.846645 14.138456 25.363281 -0.585934 -0.033596 4.298935 -1.000226 5.510573 22.193113 -20.41864 50.04137 -16.729273 -16.745071 28.522022 -0.002688 -12.69745 0.002941 16.263763 -17.913048 2.484322 -0.103949 -1.514095 -4.298404 -5.044359 -5.622085 -2.941075 0.005006 -11.040042 -0.003494 -6.122438 -15.925737 -3.835877 0.0 -0.0 0.0 -10.29114 -5.686685 -4.353788 11.032189 -11.317122 -2.369222 -1.378515 -14.255623 -6.337732 -0.631095 -26.961021 -3.821666 -4.542359 -49.93317 -3.754686 -13.716461 -7.364653 -3.714112 18.153357 -14.06359 -3.255313 0.006023 -18.793488 0.003598 -0.423385 -8.454638 2.54205 0.002734 -0.009161 -0.001708 -15.92189 -20.115629 -5.493446 30.436502 -7.208234 1.742132 0.011425 -8.170684 -0.019015 -1.872988 -22.872641 -6.145417 0.006685 0.010827 -0.021945 -174.728867 -2.620749 -3.425155 7.16434 0.028525 0.126618 -77.511627 0.074403 -2.737503 -5.164908 1.608086 2.171469 -0.999733 0.000306 -0.000743 5.54973 -1.680957 -1.547951 6.265256 -0.001465 0.073652 -77.054176 2.419297 -3.920617 -4.701062 0.586941 1.666492 -0.997728 0.000329 -0.000136 
0.0 0.0 0.0 0.0 -0.0 0.0 -0.539829 100.303017 -0.404006 89.741104 4.046778 90.070084 -2.555137 0.016286 0.038065 -11.703293 -0.425398 0.027185 18.578651 0.411981 -1.848252 30.300232 -1.053855 2.248358 -2.711819 -0.454404 0.607912 -36.796585 1.234601 -0.08788 0.003443 9.5e-05 6.8e-05 0.05956 0.013776 0.088131 0.115398 -0.038634 0.089339 0.100563 0.063384 0.096183 -139.732574 -64.313614 158.240906 30.74942 -45.808109 11.905848 26.442785 0.06526 0.070657 1.786565 -3.846551 4.988719 17.612942 -26.317259 52.456841 -19.456657 -14.397032 29.426563 0.003803 -8.777116 0.013662 16.180336 -18.160847 6.014858 -0.603494 -1.798298 -3.882993 -4.812658 -11.041401 -2.935163 -0.005069 -20.947659 -0.009684 -5.02168 -25.009199 -4.046485 -0.005143 0.004164 -0.007158 -10.627899 -5.690492 -3.576579 10.567495 -17.921103 -3.114337 -0.000686 -13.833143 0.007885 -0.520476 -31.172834 -4.044322 -11.709006 -59.492405 7.459966 -13.973514 -7.152895 -2.881554 13.759406 -8.393914 -3.209284 0.334921 -34.199234 0.763044 -0.952412 -17.74617 2.603387 -0.006328 0.001923 0.008053 -17.331869 -20.095253 -4.208999 21.748533 -1.627185 3.875031 0.001877 -6.339498 -0.012553 -1.716162 -22.600166 -6.197605 0.008469 -0.008391 0.000112 28.571156 -66.454735 169.814514 29.226114 -47.707367 14.17604 25.345692 -0.542348 -0.027714 4.317903 -0.989318 5.440649 22.157171 -20.343941 49.879105 -16.690245 -16.734337 28.450066 -0.012729 -12.673779 0.012755 16.189518 -17.823059 2.44118 -0.106145 -1.511468 -4.28261 -5.031934 -5.597245 -2.942839 0.00074 -11.001042 -0.000576 -6.09938 -15.852796 -3.835948 -0.002128 -0.002223 0.000159 -10.267287 -5.667321 -4.347946 11.013314 -11.284491 -2.360308 -1.380499 -14.208512 -6.331854 -0.618478 -26.883558 -3.832788 -4.479763 -49.671543 -3.831999 -13.692583 -7.348344 -3.738109 18.126955 -14.033327 -3.222576 0.005045 -18.745378 -0.008011 -0.43411 -8.445954 2.545089 -0.003521 0.003028 0.004245 -15.879103 -20.050402 -5.5044 30.356346 -7.1851 1.740464 -0.004603 -8.153656 -0.001628 -1.87217 -22.802723 -6.14889 0.008888 -0.003323 -0.000705 -174.584183 -2.635562 -3.347402 6.911917 0.035176 0.131028 -77.464066 0.032634 -2.73392 -5.288373 1.605534 2.167686 -0.990366 -0.000388 0.000529 5.665281 -1.662842 -1.514546 6.076067 -0.00534 0.046257 -76.891228 2.379252 -3.918064 -4.755634 0.594474 1.666476 -0.997659 -2.4e-05 -3.2e-05 
0.0 0.0 0.0 0.0 -0.0 0.0 -0.532685 100.307228 -0.383193 89.739845 4.066401 90.105568 -2.591937 0.019438 0.047211 -11.742785 -0.426134 0.038669 18.682882 0.410558 -1.853347 30.389656 -1.028789 2.243144 -2.717248 -0.46601 0.591631 -36.821003 1.230292 -0.031827 -0.002133 -0.000175 0.000437 0.066447 0.01526 0.086974 0.106422 -0.042425 0.088888 0.09699 0.069051 0.092745 -139.768814 -64.096443 158.31694 30.615404 -45.68605 11.861241 26.442509 0.041436 0.040955 1.862595 -3.930351 5.241362 17.660143 -26.30183 52.392994 -19.430286 -14.368532 29.359549 0.003168 -8.772925 -0.004061 16.206858 -18.184448 6.025974 -0.608815 -1.797388 -3.881461 -4.809065 -11.033032 -2.949292 -0.008958 -20.950535 -0.002922 -5.024046 -25.013662 -4.039945 0.004664 -0.015756 0.004631 -10.638643 -5.690093 -3.562458 10.568069 -17.910137 -3.104992 -0.004809 -13.796804 -0.00646 -0.526897 -31.178196 -4.011522 -11.681013 -59.463287 7.453598 -13.981424 -7.153775 -2.87974 13.758926 -8.393436 -3.197985 0.34907 -34.218754 0.761265 -0.954458 -17.749586 2.604582 0.009576 0.01266 0.002501 -17.36219 -20.098763 -4.185682 21.751469 -1.619928 3.853777 -0.006143 -6.335277 0.007851 -1.705345 -22.578756 -6.19357 -0.003579 0.008538 -0.0 28.612465 -66.377808 169.834732 29.178087 -47.733311 14.207209 25.331694 -0.494515 -0.033497 4.334022 -1.008123 5.490341 22.16839 -20.367014 49.927856 -16.71917 -16.732283 28.49869 -0.00713 -12.678402 0.019615 16.246721 -17.819323 2.446197 -0.102361 -1.509039 -4.293946 -5.034694 -5.614842 -2.946648 0.002763 -11.033083 0.007264 -6.080964 -15.919392 -3.862505 0.003492 -0.000297 -0.00987 -10.271605 -5.668122 -4.352479 11.033401 -11.316104 -2.381869 -1.373752 -14.251352 -6.317489 -0.595475 -26.929092 -3.837558 -4.477398 -49.897617 -3.81042 -13.698836 -7.355021 -3.723736 18.166632 -14.072484 -3.286113 0.008553 -18.795786 0.010896 -0.431011 -8.449998 2.56057 0.0 -0.0 0.0 -15.891687 -20.081297 -5.496802 30.401073 -7.214685 1.729875 0.014165 -8.165895 -0.004389 -1.826767 -22.861992 -6.181288 0.006137 0.008248 -0.002202 -174.514252 -2.650157 -3.28096 6.840991 0.038717 0.127855 -77.469688 0.035513 -2.747359 -5.288502 1.596682 2.163033 -0.997555 0.000362 0.000156 5.760096 -1.634553 -1.440749 5.96955 -0.014898 0.019522 -76.871109 2.2903 -3.890578 -4.751391 0.594495 1.663416 -0.997502 2.6e-05 -3.4e-05 
0.0 0.0 0.0 0.0 -0.0 0.0 -0.534188 100.28994 -0.378483 89.743958 4.094529 90.145576 -2.61805 0.027146 0.054644 -11.773754 -0.434413 0.049296 18.793512 0.415428 -1.859805 30.540907 -1.003232 2.280397 -2.724878 -0.483861 0.537634 -36.930096 1.218311 0.017651 0.00132 0.000258 0.000372 0.078907 0.015652 0.081583 0.103897 -0.050181 0.082505 0.083007 0.076745 0.086592 -139.826401 -64.016098 158.408997 30.513506 -45.669224 11.880121 26.477543 0.020823 0.02639 1.863589 -3.982388 5.365983 17.663187 -26.368713 52.492641 -19.482569 -14.402041 29.458206 -0.000146 -8.777455 -0.009699 16.207434 -18.185406 6.094016 -0.594004 -1.790359 -3.902968 -4.815088 -11.067288 -2.93166 -0.000258 -21.000292 -0.005134 -5.028609 -25.068804 -4.030937 0.000167 -0.01642 0.002538 -10.629972 -5.682658 -3.570515 10.57674 -17.9422 -3.105923 -0.004042 -13.82606 0.001361 -0.496172 -31.225716 -4.047567 -11.635568 -59.633022 7.517092 -13.974473 -7.145935 -2.870779 13.768646 -8.408184 -3.223197 0.341813 -34.267479 0.772691 -0.962841 -17.778082 2.612167 0.003382 0.007099 0.016683 -17.330727 -20.109892 -4.225875 21.756285 -1.650809 3.880032 -0.001127 -6.343575 -0.00361 -1.710437 -22.585461 -6.203308 -0.001565 -0.007848 0.007848 28.687216 -66.437569 169.945343 29.293859 -47.752819 14.160946 25.291718 -0.465764 -0.076197 4.417737 -1.018751 5.649517 22.183514 -20.420952 49.989124 -16.721914 -16.760426 28.471933 -0.008909 -12.705288 0.028056 16.266058 -17.852396 2.486908 -0.102131 -1.518168 -4.267042 -5.040763 -5.612471 -2.9472 0.004907 -11.027977 -0.013452 -6.11405 -15.906496 -3.837542 -0.005177 0.002608 0.012392 -10.291309 -5.679337 -4.31173 11.048311 -11.299633 -2.384812 -1.385107 -14.245581 -6.318695 -0.620072 -26.920931 -3.819075 -4.496401 -49.830368 -3.743659 -13.70828 -7.355576 -3.693757 18.15868 -14.063716 -3.266201 -0.00097 -18.790436 -0.004644 -0.43453 -8.464011 2.587039 0.016358 -0.012677 -0.013929 -15.930916 -20.094288 -5.456957 30.440962 -7.211941 1.722417 -0.008547 -8.153649 0.00308 -1.85204 -22.858624 -6.14725 0.006622 -0.005584 -0.0 -174.591522 -2.669604 -3.265682 7.088198 0.038705 0.133633 -77.647316 0.038098 -2.784869 -5.226739 1.594247 2.161418 -1.00455 -0.000281 -0.000358 5.736456 -1.617942 -1.386217 6.126675 -0.016909 0.001 -76.979904 2.220901 -3.878729 -4.717536 0.599007 1.660566 -1.001369 0.000204 -0.000358 
